<?xml version="1.0" encoding="utf-8"?>
<!-- Generator: Adobe Illustrator 26.5.0, SVG Export Plug-In . SVG Version: 6.00 Build 0)  -->
<svg version="1.1" id="Capa_1" xmlns="http://www.w3.org/2000/svg" xmlns:xlink="http://www.w3.org/1999/xlink" x="0px" y="0px"
	 viewBox="0 0 512 512" style="enable-background:new 0 0 512 512;" xml:space="preserve">
<style type="text/css">
	.st0{fill:#00943A;}
	.st1{fill:#FFFFFF;}
</style>
<text transform="matrix(1 0 0 1 3.9928 -115.5795)" style="font-family:'FranklinGothic-Book'; font-size:51.3709px;">CONFUCIUS INSTITUTE</text>
<g>
	<path class="st0" d="M256,2.54C116.02,2.54,2.54,116.02,2.54,256S116.02,509.46,256,509.46S509.46,395.98,509.46,256
		S395.98,2.54,256,2.54z M256,502.69C119.75,502.69,9.31,392.25,9.31,256S119.75,9.31,256,9.31S502.69,119.75,502.69,256
		S392.25,502.69,256,502.69z"/>
	<path class="st0" d="M139.05,424.27c-0.05-0.04-0.11-0.08-0.18-0.1c-0.44-0.16-0.88,0-1.33,0.02c-0.5,0.03-0.79-0.15-1.25-0.29
		c-1.08-0.32-2.27,1.2-2.07,2.16c0.19,0.97,1.61,0.53,2.36,0.51c0.62-0.01,1.32-0.31,1.85-0.59
		C138.96,425.69,139.77,424.82,139.05,424.27z M139.05,424.27c-0.05-0.04-0.11-0.08-0.18-0.1c-0.44-0.16-0.88,0-1.33,0.02
		c-0.5,0.03-0.79-0.15-1.25-0.29c-1.08-0.32-2.27,1.2-2.07,2.16c0.19,0.97,1.61,0.53,2.36,0.51c0.62-0.01,1.32-0.31,1.85-0.59
		C138.96,425.69,139.77,424.82,139.05,424.27z M139.05,424.27c-0.05-0.04-0.11-0.08-0.18-0.1c-0.44-0.16-0.88,0-1.33,0.02
		c-0.5,0.03-0.79-0.15-1.25-0.29c-1.08-0.32-2.27,1.2-2.07,2.16c0.19,0.97,1.61,0.53,2.36,0.51c0.62-0.01,1.32-0.31,1.85-0.59
		C138.96,425.69,139.77,424.82,139.05,424.27z M222.59,461.14c-1.68-0.7-2.39-0.43-3.5-0.77c-1.12-0.35-1.68-0.7-2.73-0.77
		c-1.06-0.07-2.11-0.7-2.66,0.28c0,0,1.53,2.32,2.52,3.09c0.98,0.77,2.24,0.84,3.43,0.91c1.2,0.07,2.25-0.43,2.95-0.98
		C223.3,462.32,224.28,461.84,222.59,461.14z M311.31,462c-1.34-0.28-2.27-0.44-3.11,0.34c-0.84,0.77-1.06,1.75-0.57,2.59
		c0.5,0.84,1.73,0.55,2.14,0.27c0,0,0.52-0.68,1.5-1.46C312.25,462.97,312.64,462.28,311.31,462z M311.31,462
		c-1.34-0.28-2.27-0.44-3.11,0.34c-0.84,0.77-1.06,1.75-0.57,2.59c0.5,0.84,1.73,0.55,2.14,0.27c0,0,0.52-0.68,1.5-1.46
		C312.25,462.97,312.64,462.28,311.31,462z M222.59,461.14c-1.68-0.7-2.39-0.43-3.5-0.77c-1.12-0.35-1.68-0.7-2.73-0.77
		c-1.06-0.07-2.11-0.7-2.66,0.28c0,0,1.53,2.32,2.52,3.09c0.98,0.77,2.24,0.84,3.43,0.91c1.2,0.07,2.25-0.43,2.95-0.98
		C223.3,462.32,224.28,461.84,222.59,461.14z M139.05,424.27c-0.05-0.04-0.11-0.08-0.18-0.1c-0.44-0.16-0.88,0-1.33,0.02
		c-0.5,0.03-0.79-0.15-1.25-0.29c-1.08-0.32-2.27,1.2-2.07,2.16c0.19,0.97,1.61,0.53,2.36,0.51c0.62-0.01,1.32-0.31,1.85-0.59
		C138.96,425.69,139.77,424.82,139.05,424.27z M139.05,424.27c-0.05-0.04-0.11-0.08-0.18-0.1c-0.44-0.16-0.88,0-1.33,0.02
		c-0.5,0.03-0.79-0.15-1.25-0.29c-1.08-0.32-2.27,1.2-2.07,2.16c0.19,0.97,1.61,0.53,2.36,0.51c0.62-0.01,1.32-0.31,1.85-0.59
		C138.96,425.69,139.77,424.82,139.05,424.27z M222.59,461.14c-1.68-0.7-2.39-0.43-3.5-0.77c-1.12-0.35-1.68-0.7-2.73-0.77
		c-1.06-0.07-2.11-0.7-2.66,0.28c0,0,1.53,2.32,2.52,3.09c0.98,0.77,2.24,0.84,3.43,0.91c1.2,0.07,2.25-0.43,2.95-0.98
		C223.3,462.32,224.28,461.84,222.59,461.14z M311.31,462c-1.34-0.28-2.27-0.44-3.11,0.34c-0.84,0.77-1.06,1.75-0.57,2.59
		c0.5,0.84,1.73,0.55,2.14,0.27c0,0,0.52-0.68,1.5-1.46C312.25,462.97,312.64,462.28,311.31,462z M372.76,426.61
		c0,0-1.36-0.07-1.91,1.23c-0.54,1.29,0.44,3.01,1.24,3.13c0.79,0.13,0.61-1.1,1.04-1.59C373.56,428.88,373.87,426.85,372.76,426.61
		z M378.47,433.74c0.31-0.61,0.55-1.78-0.31-1.48c0,0-0.43,0.55-1.29,1.1c-0.86,0.55-1.66,1.78-1.48,2.58
		c0.18,0.8,0.83,1.17,1.37,1.97c0.53,0.79,1.64,1.1,1.7,0C378.53,436.81,378.17,434.35,378.47,433.74z M378.47,433.74
		c0.31-0.61,0.55-1.78-0.31-1.48c0,0-0.43,0.55-1.29,1.1c-0.86,0.55-1.66,1.78-1.48,2.58c0.18,0.8,0.83,1.17,1.37,1.97
		c0.53,0.79,1.64,1.1,1.7,0C378.53,436.81,378.17,434.35,378.47,433.74z M372.76,426.61c0,0-1.36-0.07-1.91,1.23
		c-0.54,1.29,0.44,3.01,1.24,3.13c0.79,0.13,0.61-1.1,1.04-1.59C373.56,428.88,373.87,426.85,372.76,426.61z M311.31,462
		c-1.34-0.28-2.27-0.44-3.11,0.34c-0.84,0.77-1.06,1.75-0.57,2.59c0.5,0.84,1.73,0.55,2.14,0.27c0,0,0.52-0.68,1.5-1.46
		C312.25,462.97,312.64,462.28,311.31,462z M222.59,461.14c-1.68-0.7-2.39-0.43-3.5-0.77c-1.12-0.35-1.68-0.7-2.73-0.77
		c-1.06-0.07-2.11-0.7-2.66,0.28c0,0,1.53,2.32,2.52,3.09c0.98,0.77,2.24,0.84,3.43,0.91c1.2,0.07,2.25-0.43,2.95-0.98
		C223.3,462.32,224.28,461.84,222.59,461.14z M139.05,424.27c-0.05-0.04-0.11-0.08-0.18-0.1c-0.44-0.16-0.88,0-1.33,0.02
		c-0.5,0.03-0.79-0.15-1.25-0.29c-1.08-0.32-2.27,1.2-2.07,2.16c0.19,0.97,1.61,0.53,2.36,0.51c0.62-0.01,1.32-0.31,1.85-0.59
		C138.96,425.69,139.77,424.82,139.05,424.27z M139.05,424.27c-0.05-0.04-0.11-0.08-0.18-0.1c-0.44-0.16-0.88,0-1.33,0.02
		c-0.5,0.03-0.79-0.15-1.25-0.29c-1.08-0.32-2.27,1.2-2.07,2.16c0.19,0.97,1.61,0.53,2.36,0.51c0.62-0.01,1.32-0.31,1.85-0.59
		C138.96,425.69,139.77,424.82,139.05,424.27z M222.59,461.14c-1.68-0.7-2.39-0.43-3.5-0.77c-1.12-0.35-1.68-0.7-2.73-0.77
		c-1.06-0.07-2.11-0.7-2.66,0.28c0,0,1.53,2.32,2.52,3.09c0.98,0.77,2.24,0.84,3.43,0.91c1.2,0.07,2.25-0.43,2.95-0.98
		C223.3,462.32,224.28,461.84,222.59,461.14z M311.31,462c-1.34-0.28-2.27-0.44-3.11,0.34c-0.84,0.77-1.06,1.75-0.57,2.59
		c0.5,0.84,1.73,0.55,2.14,0.27c0,0,0.52-0.68,1.5-1.46C312.25,462.97,312.64,462.28,311.31,462z M372.76,426.61
		c0,0-1.36-0.07-1.91,1.23c-0.54,1.29,0.44,3.01,1.24,3.13c0.79,0.13,0.61-1.1,1.04-1.59C373.56,428.88,373.87,426.85,372.76,426.61
		z M378.47,433.74c0.31-0.61,0.55-1.78-0.31-1.48c0,0-0.43,0.55-1.29,1.1c-0.86,0.55-1.66,1.78-1.48,2.58
		c0.18,0.8,0.83,1.17,1.37,1.97c0.53,0.79,1.64,1.1,1.7,0C378.53,436.81,378.17,434.35,378.47,433.74z M378.47,433.74
		c0.31-0.61,0.55-1.78-0.31-1.48c0,0-0.43,0.55-1.29,1.1c-0.86,0.55-1.66,1.78-1.48,2.58c0.18,0.8,0.83,1.17,1.37,1.97
		c0.53,0.79,1.64,1.1,1.7,0C378.53,436.81,378.17,434.35,378.47,433.74z M372.76,426.61c0,0-1.36-0.07-1.91,1.23
		c-0.54,1.29,0.44,3.01,1.24,3.13c0.79,0.13,0.61-1.1,1.04-1.59C373.56,428.88,373.87,426.85,372.76,426.61z M311.31,462
		c-1.34-0.28-2.27-0.44-3.11,0.34c-0.84,0.77-1.06,1.75-0.57,2.59c0.5,0.84,1.73,0.55,2.14,0.27c0,0,0.52-0.68,1.5-1.46
		C312.25,462.97,312.64,462.28,311.31,462z M222.59,461.14c-1.68-0.7-2.39-0.43-3.5-0.77c-1.12-0.35-1.68-0.7-2.73-0.77
		c-1.06-0.07-2.11-0.7-2.66,0.28c0,0,1.53,2.32,2.52,3.09c0.98,0.77,2.24,0.84,3.43,0.91c1.2,0.07,2.25-0.43,2.95-0.98
		C223.3,462.32,224.28,461.84,222.59,461.14z M139.05,424.27c-0.05-0.04-0.11-0.08-0.18-0.1c-0.44-0.16-0.88,0-1.33,0.02
		c-0.5,0.03-0.79-0.15-1.25-0.29c-1.08-0.32-2.27,1.2-2.07,2.16c0.19,0.97,1.61,0.53,2.36,0.51c0.62-0.01,1.32-0.31,1.85-0.59
		C138.96,425.69,139.77,424.82,139.05,424.27z M256,15.42C123.13,15.42,15.42,123.13,15.42,256S123.13,496.58,256,496.58
		S496.58,388.87,496.58,256S388.87,15.42,256,15.42z M131.25,437.89c-2.56,0.83-3.79,3.46-5.65,5.2c-1.92,1.78-5.09,2.45-7.19,0.54
		c-1.64-1.49,0.5-3,1.89-3.5c1.42-0.51,2.97-0.65,4.35-1.27c0.89-0.39,2.07-0.89,2.62-1.72c0.7-1.07-0.39-1.8-1.35-2.03
		c-2.26-0.54-5.47-0.66-6.94-2.73c-0.7-0.99-0.45-2.4,0.34-3.26c1.41-1.54,3.31-1.2,5.08-0.56c1.99,0.71,4.07,1.34,6.16,0.55
		c1.22-0.46,1.45-2.08,1.39-3.25c-0.08-1.45-1.12-2.46-2.25-3.21c-1.55-1.03-3.36-2.01-3.24-4.14c0.12-2.08,2.31-3.53,4.26-2.79
		c0.45,0.17,0.82,0.42,1.19,0.69c0.98,0.76,1.76,1.51,3.03,1.72c1.17,0.19,2.37,0.02,3.52,0.27c1.18,0.25,2.27,1.01,3.28,1.63
		c1.25,0.77,2.46,1.6,3.62,2.48c1.01,0.76,2.63,1.46,3.05,2.75c0.29,0.91-0.41,1.7-1.19,2.06c-0.57,0.26-1.66,0.85-2.3,0.93
		c-2.28,0.3-2.88,0.15-5.62,0.82c-0.86,0.21-3.09,1.27-3.34,2.18c-0.11,0.37-0.11,0.74-0.1,1.12c0.01,0.18,0.02,0.37,0.08,0.54
		c0.06,0.15,0.17,0.28,0.28,0.41c0.88,1.01,2.47,1.09,3.18,2.23c0.6,0.94,0.14,2.29-0.78,2.93c-0.91,0.64-2.13,0.69-3.23,0.48
		c-0.64-0.13-1.01-0.02-1.45-0.51C133.3,437.72,132.17,437.58,131.25,437.89z M153.83,431.34c-1.13,0.25-1.76,0.06-2.89,0.81
		c-1.13,0.75-5.89,7.65-6.58,8.66c-0.69,1-3.2,5.02-3.08,6.15c0.13,1.13,1.63,3.89,3.14,5.14c1.5,1.26,3.27,2.39,5.47,2.39
		c2.19,0,4.95-0.5,4.95-0.5c1.13-0.19,0.32,1.32-0.62,2.56c-0.94,1.26-4.89,3.96-6.15,4.15c-1.26,0.19-4.02-1.57-5.02-2.45
		c-1.01-0.88-5.96-6.16-7.28-7.66c-1.32-1.5-1.01-2.56,0-4.51c1-1.94,3.7-4.4,4.7-5.64c1-1.26,9.53-11.49,9.53-11.49
		c4.71-2.82,6.71-0.5,6.71,0.38S154.96,431.08,153.83,431.34z M235.5,477.19c-0.84,0.63-3.02,1.9-4.91,2.39
		c-1.89,0.5-3.85-0.63-5.26-2.1c-1.41-1.48-5.68-4.7-6.31-4.63c-0.63,0.07-1.61,1.41-2.25,2.88c-0.63,1.47-3.5,6.51-3.5,6.51
		s-2.66,3.44-6.51,3.86c-3.86,0.42-6.73-2.18-7.71-3.5c-0.98-1.34-0.7-1.61,0.14-1.9c0.84-0.28,1.12,0.36,1.89,0.7
		c0.77,0.36,4.14,0.56,6.03,0.36c1.89-0.22,2.52-1.13,3.57-2.39c1.05-1.27,2.8-4.49,3.09-5.4c0.28-0.91,0.14-1.68-0.7-2.46
		c-0.84-0.77-2.8-0.84-4.84-0.7c-2.03,0.14-7.01,0.14-9.95-0.35c-2.95-0.5-5.26-1.48-5.54-2.85c-0.28-1.39,1.2-3.11,2.81-3.4
		c1.61-0.28,2.1,0.7,3.29,1.26c1.2,0.54,4.91,0.15,6.59,0.01c1.68-0.14,4.21,0.91,5.53,1.75c1.34,0.84,2.81,0,2.81,0
		s0.21-1.48-0.5-2.87c-0.7-1.41-4-4.22-5.67-4.63c-3.13-0.77-5.75-0.7-6.46-2.52c-0.7-1.82,0.36-2.46,2.46-2.73
		c2.1-0.28,8.42-0.42,10.58,0c2.18,0.43,7.71,2.03,9.89,3.16c2.17,1.12,7.92,3.5,8.83,4.69c0.91,1.2-0.29,1.34-1.82,2.52
		c-1.54,1.19-3.72,0.91-5.12,1.05c-1.41,0.14-3.57,0.07-5.12,0.36c-1.54,0.28-0.7,1.75,0.49,2.52c1.2,0.77,2.66,1.75,4.28,2.59
		c1.61,0.84,3.79,1.96,5.82,2.52c2.03,0.55,2.94,0.14,4.69,0.69C237.87,475.16,236.34,476.56,235.5,477.19z M287.9,464.62
		c-0.25-1.13-0.75-0.99-0.75-0.99c-0.5-2.12,1.63-1.33,2.32-1.86c0.68-0.53,1.19-0.65,1.94-0.97c0.75-0.31,2.75-1.12,3.19-1.44
		c0.44-0.32,1.19-0.68,1-1.75c-0.19-1.06-2.19-0.87-3.13-2.38c-0.94-1.5-0.12-2,0.88-2.38c1-0.38,2.81-0.94,3.81-0.06
		c1,0.87,2.06,3.5,2.68,4c0.63,0.5,1.26,0.13,2.26-0.13c1-0.25,1.44-0.68,2.06-1.31c0.62-0.62,0.13-1.13-0.75-2.45
		c-0.87-1.31-2.25-1.31-2.12-2.31c0.12-1,1.12-1.38,1.81-1.44c0.68-0.07,1.68-0.19,2.44,0.31c0.75,0.5,1.13,2.62,1.38,3.44
		c0.25,0.82,0.56,1.56,1.44,1.63c0.88,0.06,2-0.62,2.75-0.81c0.75-0.19,1.56-0.75,2.19-1.69c0.62-0.94,0.69-1.32,0.5-1.94
		c-0.19-0.62-0.44-1.38-0.19-2.06c0.25-0.69,0.81-1.81,3.56-1.5c2.75,0.32,1.32,3.5,0.68,3.88c-0.62,0.38-1.06,1.44-0.44,2.38
		c0.62,0.94,5.13-1.07,8.5-0.32c3.38,0.75,1.75,3,1.44,3.82c-0.31,0.81-1.25,3.81-1.93,4.12c-0.69,0.32-2.13-0.19-1.94-1.06
		c0.19-0.87,0.38-2.69,0-3.25c-0.38-0.56-0.38-1.38-1.69-1.45c-1.31-0.06-5.5,0.19-6.62,0.5c-1.13,0.31-4,0.81-5.41,1.06
		c-1.4,0.25-1.04,0.44-2.91,0.88c-1.88,0.44-1.94,0.68-2.69,0.76c-0.75,0.09-1.94,0.17-2.56,0.8c-0.62,0.62-0.87,0.68-1.94,1.44
		c-1.06,0.75-1.74,0.38-2.93,1.31c-1.19,0.94-3.5,2.01-4.32,3.13c-0.81,1.13-1.19,1.94-1.07,3.56c0.13,1.62-1.74,2.07-2.19,1.38
		c-0.44-0.68-0.37-2.44-0.34-3.19C288.84,465.55,288.15,465.74,287.9,464.62z M331.12,466.88c-0.42,1.06-0.98,2.59-2.73,4.35
		c-1.75,1.75-4.77,1.13-6.52-0.14c-1.75-1.26-5.26-0.7-6.58-0.77c-1.34-0.07-1.68,0.36-2.25,1.61c-0.55,1.27,0.63,2.32,0.77,3.93
		c0.14,1.61,0.35,4.14-1.05,5.4c-1.41,1.26-5.12,1.68-6.46,1.96c-1.33,0.29-3.29,0.36-4.06-0.28c-0.77-0.63,0.21-0.91,1.75-1.48
		c1.54-0.55,3.15-1.33,4.55-2.31c1.41-0.99,1.48-2.18,1.54-4.7c0.07-2.52-0.98-1.89-2.04-1.97c-1.05-0.08-3.5,0.29-5.6,1.62
		c-2.1,1.33-3.37,1.05-4.84,2.1c-1.47,1.05-4.35,3.37-5.74,3.64c-1.41,0.29-2.04-0.28-2.8-2.59c-0.77-2.31,0.28-2.59,2.59-3.71
		c2.31-1.12,4.35-1.12,7.08-2.03c2.73-0.91,6.24-1.75,7.78-2.25c1.53-0.49,1.05-1.33,0.84-1.68c-0.22-0.35-1.34-1.82-2.46-2.39
		c-1.12-0.55-2.8,0.56-2.8,0.56s-1.9,2.46-3.79,2.95c-1.89,0.49-3.01-0.43-3.37-2.11c-0.35-1.68,0.29-2.03,1.82-2.59
		c1.54-0.56,2.18-0.49,3.16-0.91c0.98-0.42,2.8-2.17,4.69-2.66c1.9-0.5,9.53-2.39,11.22-2.52c1.68-0.14,3.93,0.28,3.86,0.98
		c-0.07,0.7-1.68,2.66-2.66,3.5c-0.98,0.84-3.5,2.25-4.49,3.09c-0.99,0.84-0.84,1.68-0.15,1.82c0.7,0.14,2.52,0,3.5-0.35
		c0.99-0.36,1.34-0.43,2.95-0.63c1.61-0.21,3.92,0.35,5.53,0.14c1.61-0.21,2.88-1.12,4.21-1.89c1.34-0.77,1.82-1.68,2.8-1.05
		C332.39,464.15,331.54,465.83,331.12,466.88z M381.09,449.8c-1.61-1.03-6.02-6.46-9.1-11.3c-3.08-4.83-8.36-8.5-8.36-8.5
		c-1.69-1.3-1.47-2.93,0.88-3.66c2.35-0.73,6.16-6.31,8.36-7.92c2.2-1.61,2.2-0.58,2.93,0c0.73,0.58,0.73,5.28,0.73,6.31
		c0,1.03,0,2.93,1.03,2.78c1.03-0.15,3.66,0.3,4.84,1.61c1.17,1.33-0.58,6.6-0.88,8.51c-0.3,1.9-0.58,4.83,0,7.04
		c0.58,2.2,2.93,2.49,2.79,5.13C384.17,452.44,382.7,450.83,381.09,449.8z M382.53,412.78c0.25-1.23,0.12-3.01,1.29-3.56
		c1.17-0.55,0.86-0.37,2.34,0.31c0.6,0.28,1.11,0.47,1.5,0.6c0.56,0.19,1.18,0.11,1.68-0.21c1.33-0.86,2.57-1.96,3.14-2.43
		c0.68-0.55,2.77-3.75,4.55-3.44c1.78,0.31,1.96,5.04,1.78,6.08c-0.19,1.05-1.36,2.76-1.91,2.89c-0.55,0.12-1.71,0.18-2.18-0.74
		c-0.47-0.92-0.09-2.03-0.48-2.76c-0.39-0.73-1.34,0.06-2.26,0.55c-0.92,0.49-2.03,1.78-3.08,2.82c-1.04,1.05-3.93,3.87-4.59,4.99
		c-0.67,1.11-2.04,2.02-1.98,2.88c0.06,0.86,0.55,1.53,1.6,1.11c1.04-0.44,1.84-1.78,2.82-2.83c0.98-1.04,3.14-2.64,4.37-3.75
		c1.24-1.1,2.09-1.23,3.12-0.73c1.03,0.5,0.14,1.72-0.36,2.99c-0.5,1.26-4.06,3.64-5.87,5.25c-1.82,1.59-4.21,3.74-5.55,4.05
		c-1.36,0.31-3.26-1.53-4.18-3.44c-0.93-1.91-0.19-3.08,0.47-3.93c0.65-0.86,2.66-2.22,3.34-3.63
		C382.78,414.44,382.29,414.01,382.53,412.78z M393.78,440.13c-0.31,1.78-1.42,3.32-2.52,4.18c-1.1,0.86-2.95,0.44-3.2-0.86
		c-0.24-1.29,0.74-1.78,1.05-2.88c0.31-1.11,0.19-2.77,0.92-4c0.74-1.23,1.17-2.34,1.48-4.35c0.31-2.01,1.48-1.92,1.48-1.92
		C395.01,430.11,394.09,438.34,393.78,440.13z M413.14,428.79c-1.59,1.63-3.07,2.25-5.29,2.86c-2.21,0.61-3.13,2.4-5.29,3.38
		c-2.15,0.98-3.68-2.21-4.6-3.38s-2.89-4.25-3.7-4.8c-0.81-0.54-0.85,0.07-2.39,1.11c-1.53,1.05-2.4,3.08-3.84,4.26
		c-1.46,1.18-1.62,0.97-2.73,0c-1.11-0.97-0.61-1.98,0-3.43c0.61-1.44,2.83-2.92,4.31-4.57c1.48-1.66,8.36-7.2,8.36-7.2
		c1.01-0.81,1.29-0.73,2.28-0.43c0.98,0.31,0.98,2.09,0.73,3.01s-1.05,1.72-2.21,2.21c-1.17,0.5-0.8,1.66-0.68,2.83
		c0.13,1.17,2.4,3.81,2.77,4.15c0.37,0.35,2.09,0.64,2.82,0c0.74-0.63,0.92-0.95,2.52-1.87c1.59-0.92,2.27-0.99,3.38-2.09
		c1.11-1.11,0.92-2.89,1.05-4.31c0.12-1.42,0.67-1.29,1.23-1.17c0.55,0.13,2.34,2.46,2.95,4.12
		C415.41,425.14,414.73,427.16,413.14,428.79z M256,447.4c-105.71,0-191.4-85.69-191.4-191.4S150.29,64.6,256,64.6
		S447.4,150.29,447.4,256S361.71,447.4,256,447.4z M378.17,432.27c0,0-0.43,0.55-1.29,1.1c-0.86,0.55-1.66,1.78-1.48,2.58
		c0.18,0.8,0.83,1.17,1.37,1.97c0.53,0.79,1.64,1.1,1.7,0c0.06-1.11-0.31-3.56,0-4.18C378.78,433.13,379.03,431.96,378.17,432.27z
		 M372.76,426.61c0,0-1.36-0.07-1.91,1.23c-0.54,1.29,0.44,3.01,1.24,3.13c0.79,0.13,0.61-1.1,1.04-1.59
		C373.56,428.88,373.87,426.85,372.76,426.61z M311.31,462c-1.34-0.28-2.27-0.44-3.11,0.34c-0.84,0.77-1.06,1.75-0.57,2.59
		c0.5,0.84,1.73,0.55,2.14,0.27c0,0,0.52-0.68,1.5-1.46C312.25,462.97,312.64,462.28,311.31,462z M222.59,461.14
		c-1.68-0.7-2.39-0.43-3.5-0.77c-1.12-0.35-1.68-0.7-2.73-0.77c-1.06-0.07-2.11-0.7-2.66,0.28c0,0,1.53,2.32,2.52,3.09
		c0.98,0.77,2.24,0.84,3.43,0.91c1.2,0.07,2.25-0.43,2.95-0.98C223.3,462.32,224.28,461.84,222.59,461.14z M138.44,425.98
		c0.52-0.29,1.34-1.16,0.61-1.71c-0.05-0.04-0.11-0.08-0.18-0.1c-0.44-0.16-0.88,0-1.33,0.02c-0.5,0.03-0.79-0.15-1.25-0.29
		c-1.08-0.32-2.27,1.2-2.07,2.16c0.19,0.97,1.61,0.53,2.36,0.51C137.21,426.56,137.9,426.27,138.44,425.98z M139.05,424.27
		c-0.05-0.04-0.11-0.08-0.18-0.1c-0.44-0.16-0.88,0-1.33,0.02c-0.5,0.03-0.79-0.15-1.25-0.29c-1.08-0.32-2.27,1.2-2.07,2.16
		c0.19,0.97,1.61,0.53,2.36,0.51c0.62-0.01,1.32-0.31,1.85-0.59C138.96,425.69,139.77,424.82,139.05,424.27z M222.59,461.14
		c-1.68-0.7-2.39-0.43-3.5-0.77c-1.12-0.35-1.68-0.7-2.73-0.77c-1.06-0.07-2.11-0.7-2.66,0.28c0,0,1.53,2.32,2.52,3.09
		c0.98,0.77,2.24,0.84,3.43,0.91c1.2,0.07,2.25-0.43,2.95-0.98C223.3,462.32,224.28,461.84,222.59,461.14z M311.31,462
		c-1.34-0.28-2.27-0.44-3.11,0.34c-0.84,0.77-1.06,1.75-0.57,2.59c0.5,0.84,1.73,0.55,2.14,0.27c0,0,0.52-0.68,1.5-1.46
		C312.25,462.97,312.64,462.28,311.31,462z M372.76,426.61c0,0-1.36-0.07-1.91,1.23c-0.54,1.29,0.44,3.01,1.24,3.13
		c0.79,0.13,0.61-1.1,1.04-1.59C373.56,428.88,373.87,426.85,372.76,426.61z M378.47,433.74c0.31-0.61,0.55-1.78-0.31-1.48
		c0,0-0.43,0.55-1.29,1.1c-0.86,0.55-1.66,1.78-1.48,2.58c0.18,0.8,0.83,1.17,1.37,1.97c0.53,0.79,1.64,1.1,1.7,0
		C378.53,436.81,378.17,434.35,378.47,433.74z M378.47,433.74c0.31-0.61,0.55-1.78-0.31-1.48c0,0-0.43,0.55-1.29,1.1
		c-0.86,0.55-1.66,1.78-1.48,2.58c0.18,0.8,0.83,1.17,1.37,1.97c0.53,0.79,1.64,1.1,1.7,0
		C378.53,436.81,378.17,434.35,378.47,433.74z M372.76,426.61c0,0-1.36-0.07-1.91,1.23c-0.54,1.29,0.44,3.01,1.24,3.13
		c0.79,0.13,0.61-1.1,1.04-1.59C373.56,428.88,373.87,426.85,372.76,426.61z M311.31,462c-1.34-0.28-2.27-0.44-3.11,0.34
		c-0.84,0.77-1.06,1.75-0.57,2.59c0.5,0.84,1.73,0.55,2.14,0.27c0,0,0.52-0.68,1.5-1.46C312.25,462.97,312.64,462.28,311.31,462z
		 M222.59,461.14c-1.68-0.7-2.39-0.43-3.5-0.77c-1.12-0.35-1.68-0.7-2.73-0.77c-1.06-0.07-2.11-0.7-2.66,0.28
		c0,0,1.53,2.32,2.52,3.09c0.98,0.77,2.24,0.84,3.43,0.91c1.2,0.07,2.25-0.43,2.95-0.98C223.3,462.32,224.28,461.84,222.59,461.14z
		 M139.05,424.27c-0.05-0.04-0.11-0.08-0.18-0.1c-0.44-0.16-0.88,0-1.33,0.02c-0.5,0.03-0.79-0.15-1.25-0.29
		c-1.08-0.32-2.27,1.2-2.07,2.16c0.19,0.97,1.61,0.53,2.36,0.51c0.62-0.01,1.32-0.31,1.85-0.59
		C138.96,425.69,139.77,424.82,139.05,424.27z M139.05,424.27c-0.05-0.04-0.11-0.08-0.18-0.1c-0.44-0.16-0.88,0-1.33,0.02
		c-0.5,0.03-0.79-0.15-1.25-0.29c-1.08-0.32-2.27,1.2-2.07,2.16c0.19,0.97,1.61,0.53,2.36,0.51c0.62-0.01,1.32-0.31,1.85-0.59
		C138.96,425.69,139.77,424.82,139.05,424.27z M222.59,461.14c-1.68-0.7-2.39-0.43-3.5-0.77c-1.12-0.35-1.68-0.7-2.73-0.77
		c-1.06-0.07-2.11-0.7-2.66,0.28c0,0,1.53,2.32,2.52,3.09c0.98,0.77,2.24,0.84,3.43,0.91c1.2,0.07,2.25-0.43,2.95-0.98
		C223.3,462.32,224.28,461.84,222.59,461.14z M311.31,462c-1.34-0.28-2.27-0.44-3.11,0.34c-0.84,0.77-1.06,1.75-0.57,2.59
		c0.5,0.84,1.73,0.55,2.14,0.27c0,0,0.52-0.68,1.5-1.46C312.25,462.97,312.64,462.28,311.31,462z M311.31,462
		c-1.34-0.28-2.27-0.44-3.11,0.34c-0.84,0.77-1.06,1.75-0.57,2.59c0.5,0.84,1.73,0.55,2.14,0.27c0,0,0.52-0.68,1.5-1.46
		C312.25,462.97,312.64,462.28,311.31,462z M222.59,461.14c-1.68-0.7-2.39-0.43-3.5-0.77c-1.12-0.35-1.68-0.7-2.73-0.77
		c-1.06-0.07-2.11-0.7-2.66,0.28c0,0,1.53,2.32,2.52,3.09c0.98,0.77,2.24,0.84,3.43,0.91c1.2,0.07,2.25-0.43,2.95-0.98
		C223.3,462.32,224.28,461.84,222.59,461.14z M139.05,424.27c-0.05-0.04-0.11-0.08-0.18-0.1c-0.44-0.16-0.88,0-1.33,0.02
		c-0.5,0.03-0.79-0.15-1.25-0.29c-1.08-0.32-2.27,1.2-2.07,2.16c0.19,0.97,1.61,0.53,2.36,0.51c0.62-0.01,1.32-0.31,1.85-0.59
		C138.96,425.69,139.77,424.82,139.05,424.27z M139.05,424.27c-0.05-0.04-0.11-0.08-0.18-0.1c-0.44-0.16-0.88,0-1.33,0.02
		c-0.5,0.03-0.79-0.15-1.25-0.29c-1.08-0.32-2.27,1.2-2.07,2.16c0.19,0.97,1.61,0.53,2.36,0.51c0.62-0.01,1.32-0.31,1.85-0.59
		C138.96,425.69,139.77,424.82,139.05,424.27z M222.59,461.14c-1.68-0.7-2.39-0.43-3.5-0.77c-1.12-0.35-1.68-0.7-2.73-0.77
		c-1.06-0.07-2.11-0.7-2.66,0.28c0,0,1.53,2.32,2.52,3.09c0.98,0.77,2.24,0.84,3.43,0.91c1.2,0.07,2.25-0.43,2.95-0.98
		C223.3,462.32,224.28,461.84,222.59,461.14z M222.59,461.14c-1.68-0.7-2.39-0.43-3.5-0.77c-1.12-0.35-1.68-0.7-2.73-0.77
		c-1.06-0.07-2.11-0.7-2.66,0.28c0,0,1.53,2.32,2.52,3.09c0.98,0.77,2.24,0.84,3.43,0.91c1.2,0.07,2.25-0.43,2.95-0.98
		C223.3,462.32,224.28,461.84,222.59,461.14z M139.05,424.27c-0.05-0.04-0.11-0.08-0.18-0.1c-0.44-0.16-0.88,0-1.33,0.02
		c-0.5,0.03-0.79-0.15-1.25-0.29c-1.08-0.32-2.27,1.2-2.07,2.16c0.19,0.97,1.61,0.53,2.36,0.51c0.62-0.01,1.32-0.31,1.85-0.59
		C138.96,425.69,139.77,424.82,139.05,424.27z M139.05,424.27c-0.05-0.04-0.11-0.08-0.18-0.1c-0.44-0.16-0.88,0-1.33,0.02
		c-0.5,0.03-0.79-0.15-1.25-0.29c-1.08-0.32-2.27,1.2-2.07,2.16c0.19,0.97,1.61,0.53,2.36,0.51c0.62-0.01,1.32-0.31,1.85-0.59
		C138.96,425.69,139.77,424.82,139.05,424.27z M139.05,424.27c-0.05-0.04-0.11-0.08-0.18-0.1c-0.44-0.16-0.88,0-1.33,0.02
		c-0.5,0.03-0.79-0.15-1.25-0.29c-1.08-0.32-2.27,1.2-2.07,2.16c0.19,0.97,1.61,0.53,2.36,0.51c0.62-0.01,1.32-0.31,1.85-0.59
		C138.96,425.69,139.77,424.82,139.05,424.27z"/>
	<path class="st0" d="M151.85,114.27l17.55,14.55c0,0-58.64,127.97,53.07,192.6C222.47,321.42,85.09,284.61,151.85,114.27z"/>
	<path class="st0" d="M199.86,119.24l17.55,14.55c0,0-77.52,123.82,29.02,175.9C246.42,309.69,119.05,277.36,199.86,119.24z"/>
	<path class="st0" d="M250.44,125.85l17.55,14.55c0,0-109.01,96.16,9.9,163.73C277.89,304.13,137.93,263.03,250.44,125.85z"/>
	<path class="st0" d="M357.63,259.06c2.04,0.19,4.05,0.42,6.04,0.66c-3.67,11.33-9.26,21.52-14.88,29.92
		C349.59,276.75,354.57,264.61,357.63,259.06z"/>
	<path class="st0" d="M364.87,255.76c-1.49-0.19-2.99-0.37-4.5-0.52c1.55-1.61,3.74-3.47,5.86-5.15
		C365.85,252.01,365.39,253.9,364.87,255.76z"/>
	<path class="st0" d="M404.16,269.83c2.56,1.08,4.97,2.21,7.21,3.39c-3.57,34.79-16.73,50.59-19.88,55.04
		c-1.25,1.75-2.6,3.53-4.08,5.34c-11.85,14.6-30.57,30.63-51.29,43.17c-29.77,18.01-80.79,29.01-98.55,30.76
		c-17.76,1.75-38.4,2-38.4,2s6-2.75,27.14-6.5c21.14-3.74,17.26-5.49,17.26-5.49c-3.38-1-18.26-0.38-24.39,1.12
		c-6.13,1.5-30.27,2.75-30.27,2.75s8.22-2.09,12.5-2.75c17.14-2.62,25.89-6.75,25.89-6.75l-38.02,3.26
		c46.9-9.01,57.03-14.01,57.03-14.01c-3.38-0.38-10,0.5-21.14,2.62c-11.13,2.13-28.14,4.38-28.14,4.38
		c12.01-3.38,26.51-8.62,26.51-8.62c-15.02,2.79-39.21,4.4-39.21,4.4c55.97-10.43,97.12-17.92,131.26-38.66
		c3.22-1.96,6.13-3.92,8.75-5.88c1.74-1.3,3.37-2.59,4.86-3.89c21.93-18.8,19.41-38.87,19.41-38.87s0.9-0.98,1.47-1.65
		c6.58-9.31,13.43-21.18,17.64-34.68C381.31,262.24,393.72,265.48,404.16,269.83z"/>
	<path class="st0" d="M266.2,266.07c-5.01,2.1-9.44,4.39-13.23,6.83c-5.66-7.45-9-17.18-9-29.83c0-5.65,0.57-11.17,1.65-16.49h43.89
		c-0.25,2.51-0.39,5.09-0.39,7.69c0,8.34,1.33,16.35,3.5,23.88C282.97,260.14,274.04,262.79,266.2,266.07z"/>
	<path class="st0" d="M289.99,222.61h-43.45c4.37-17.02,14.07-31.9,27.21-42.77c8.18,3.04,18.24,5.38,29.54,6.76
		C297.25,196.76,291.99,208.97,289.99,222.61z"/>
	<path class="st0" d="M293.84,262.07c2.85,8.58,6.74,16.48,10.9,23.45c-13.93,8.59-28.22,3.76-30.94,2.71
		c-0.31-0.12-0.47-0.19-0.47-0.19c-6.86-2.93-12.9-6.82-17.7-11.97c3.49-2.23,7.56-4.32,12.14-6.24
		C275.48,266.6,284.3,264,293.84,262.07z"/>
	<path class="st0" d="M323.03,161.13c-4.69,4.77-11.37,12.3-17.55,21.94c-10.96-1.24-20.48-3.34-28.2-5.98
		C290.16,167.57,305.92,161.72,323.03,161.13z"/>
	<path class="st0" d="M297.85,261.3c9.65-1.73,19.99-2.8,30.68-3.14c-5.41,8.95-13.21,17.62-13.21,17.62
		c-2.32,3-4.75,5.43-7.22,7.37C304.22,276.6,300.57,269.24,297.85,261.3z"/>
	<path class="st0" d="M310.08,183.53c7.08-10.65,14.6-18.48,18.66-22.41c1.25,0.04,2.5,0.11,3.73,0.21
		c4.04,3.91,11.26,11.49,18.12,21.7c-7.02,0.81-14.63,1.26-22.75,1.26C321.61,184.29,315.68,184.01,310.08,183.53z"/>
	<path class="st0" d="M352.87,186.55c6.3,10.08,11.95,22.38,14.1,36.07h-72.94c2.12-13.44,7.59-25.53,13.75-35.51
		c6.38,0.62,13.09,0.96,20.06,0.96C336.65,188.06,345.06,187.53,352.87,186.55z"/>
	<path class="st0" d="M375.8,177.93c-5.98,1.86-12.92,3.41-20.67,4.51c-5.67-8.72-11.7-15.67-16.23-20.36
		C352.63,164.26,365.24,169.84,375.8,177.93z"/>
	<path class="st0" d="M367.49,226.57c0.27,2.52,0.42,5.09,0.42,7.69c0,3.5-0.26,6.96-0.72,10.36l-5.08-0.39c0,0,0,0-2.09-1.67
		c-2.08-1.66-4.59-5.01-10.64-4.18c-6.06,0.84-12.95,1.05-16.92,11.91c-0.44,1.2-0.99,2.46-1.62,3.72h-0.01
		c-11.94,0.26-23.48,1.41-34.22,3.37c-2.17-7.34-3.51-15.09-3.51-23.12c0-2.6,0.16-5.17,0.42-7.69H367.49z"/>
	<path class="st0" d="M357.31,185.93c8.17-1.25,15.59-3,22-5.16c1.61,1.38,3.17,2.82,4.66,4.32c0.13,0.12,17.18,15.96,24.98,37.52
		h-37.94C368.97,208.67,363.52,196.22,357.31,185.93z"/>
	<path class="st0" d="M412.76,243.07c0,8.48,0,13.87-0.99,25.76c-1.91-0.95-3.92-1.87-6.04-2.76c-10.59-4.43-23.16-7.73-36.84-9.75
		c0.85-3.19,1.53-6.46,2.04-9.78c1.24-0.9,2.04-1.47,2.04-1.47l-1.81-0.14c0.47-3.49,0.71-7.04,0.71-10.66
		c0-2.6-0.13-5.18-0.38-7.69h38.75C411.81,231.83,412.76,237.37,412.76,243.07z"/>
	<path class="st0" d="M372.76,426.61c0,0-1.36-0.07-1.91,1.23c-0.54,1.29,0.44,3.01,1.24,3.13c0.79,0.13,0.61-1.1,1.04-1.59
		C373.56,428.88,373.87,426.85,372.76,426.61z"/>
	<path class="st0" d="M373.13,429.37c-0.43,0.5-0.25,1.72-1.04,1.59c-0.8-0.12-1.78-1.84-1.24-3.13c0.55-1.3,1.91-1.23,1.91-1.23
		C373.87,426.85,373.56,428.88,373.13,429.37z"/>
</g>
<g>
	<path class="st1" d="M65.43,165.02l2.46-3.47c6.63,4.92,8.59,10.6,5.9,17.05c-1.77,4.24-4.87,6.85-9.3,7.83
		c-4.43,0.98-9.14,0.43-14.13-1.66c-5.15-2.16-8.77-5.15-10.84-8.97c-2.07-3.83-2.22-7.86-0.45-12.09c2.63-6.28,7.9-8.81,15.83-7.59
		l-0.87,4.28c-5.93-0.79-9.74,0.82-11.41,4.83c-1.24,2.96-0.96,5.77,0.84,8.43c1.8,2.66,4.94,4.93,9.42,6.8
		c4.11,1.72,7.75,2.26,10.92,1.63c3.18-0.63,5.34-2.32,6.49-5.07C72.06,172.74,70.44,168.75,65.43,165.02z"/>
	<path class="st1" d="M87.62,151.94c-2.46,3.96-5.91,6.09-10.37,6.4c-4.46,0.3-8.92-0.93-13.4-3.71c-4.67-2.9-7.81-6.45-9.42-10.66
		c-1.61-4.21-1.22-8.23,1.15-12.05c2.36-3.81,5.76-5.94,10.18-6.39c4.42-0.45,8.91,0.74,13.46,3.56c4.37,2.71,7.49,6.19,9.35,10.44
		C90.43,143.78,90.11,147.92,87.62,151.94z M84.53,149.9c1.67-2.7,1.75-5.57,0.24-8.61c-1.51-3.05-4.21-5.77-8.08-8.17
		c-3.98-2.47-7.57-3.6-10.76-3.4c-3.19,0.2-5.6,1.6-7.21,4.21c-1.63,2.64-1.73,5.47-0.3,8.51c1.44,3.04,4.09,5.76,7.97,8.16
		c3.79,2.35,7.35,3.47,10.7,3.38C80.42,153.88,82.91,152.52,84.53,149.9z"/>
	<path class="st1" d="M115.86,114.56l-2.92,3.31l-36.14-6.86l1.83,1.54c0.71,0.56,1.3,1.04,1.77,1.45l20.21,17.84l-2.43,2.75
		l-27.21-24.02l3.77-4.27l33.79,6.42l-1.93-1.63c-0.77-0.63-1.44-1.2-2.01-1.7L86.28,93.24l2.38-2.69L115.86,114.56z"/>
	<path class="st1" d="M125.11,106.48l-3.49,2.91L98.36,81.53l17.06-14.25l2.56,3.06l-13.57,11.33l7.35,8.8L123,81.09l2.35,2.82
		l-11.24,9.39L125.11,106.48z"/>
	<path class="st1" d="M140.74,51.04l3.22-1.97l12.4,20.21c2.49,4.05,3.27,7.57,2.37,10.55c-0.91,2.98-2.97,5.46-6.19,7.43
		c-3.58,2.2-6.79,2.92-9.63,2.16c-2.83-0.76-5.46-3.11-7.88-7.06l-12.4-20.21l3.88-2.38l12.4,20.21c1.48,2.4,2.79,3.93,3.96,4.57
		c1.16,0.64,2.45,0.85,3.87,0.62c1.42-0.23,2.75-0.72,3.99-1.48c2.39-1.46,3.82-3.2,4.29-5.22c0.47-2.01-0.15-4.42-1.87-7.22
		L140.74,51.04z"/>
	<path class="st1" d="M184.75,57.2l4.19-0.73c1.25,8.16-1.36,13.58-7.8,16.27c-4.24,1.76-8.28,1.44-12.12-0.98
		c-3.84-2.42-6.8-6.13-8.88-11.12c-2.15-5.16-2.61-9.83-1.39-14c1.22-4.18,3.95-7.15,8.19-8.91c6.28-2.62,11.81-0.7,16.59,5.74
		l-3.63,2.43c-3.66-4.74-7.5-6.27-11.5-4.6c-2.96,1.23-4.74,3.43-5.34,6.58c-0.6,3.16,0.04,6.98,1.9,11.46
		c1.71,4.11,3.91,7.05,6.62,8.84c2.7,1.78,5.43,2.1,8.18,0.96C184.02,67.36,185.69,63.38,184.75,57.2z"/>
	<path class="st1" d="M202.23,64.69l-4.36,1.28l-10.21-34.83l4.36-1.28L202.23,64.69z"/>
	<path class="st1" d="M224.12,23.03l3.72-0.65l4.06,23.36c0.81,4.68,0.25,8.24-1.69,10.68c-1.94,2.44-4.77,3.98-8.49,4.62
		c-4.14,0.72-7.39,0.2-9.74-1.55c-2.36-1.75-3.93-4.91-4.72-9.47l-4.06-23.36l4.48-0.78l4.06,23.36c0.48,2.78,1.15,4.68,1.99,5.7
		c0.84,1.02,1.97,1.69,3.37,2.01c1.4,0.31,2.82,0.35,4.25,0.1c2.76-0.48,4.73-1.57,5.91-3.27s1.49-4.17,0.93-7.4L224.12,23.03z"/>
	<path class="st1" d="M237.03,48.07l4.08-1.01c1.74,4.91,5.36,7.32,10.85,7.21c2.87-0.05,5.02-0.7,6.45-1.95
		c1.43-1.25,2.13-2.89,2.09-4.94c-0.03-1.55-0.61-2.78-1.73-3.7c-1.13-0.92-2.42-1.55-3.88-1.87l-7.29-1.65
		c-1.89-0.44-3.44-1-4.65-1.66c-1.21-0.66-2.24-1.69-3.1-3.1c-0.86-1.4-1.31-3.02-1.34-4.85c-0.06-3.03,1.04-5.47,3.29-7.32
		c2.25-1.84,5.17-2.8,8.75-2.87c6.59-0.13,10.98,2.78,13.17,8.71l-4.1,1.3c-0.52-2.12-1.67-3.7-3.47-4.76
		c-1.79-1.06-3.69-1.57-5.69-1.53c-1.99,0.04-3.74,0.6-5.27,1.68c-1.53,1.08-2.28,2.58-2.24,4.5c0.05,2.69,2.05,4.47,6,5.34
		l6.82,1.46c6.23,1.37,9.4,4.65,9.49,9.85c0.06,3.14-1.06,5.77-3.35,7.9c-2.29,2.13-5.55,3.23-9.79,3.31
		C244.6,58.27,239.57,54.92,237.03,48.07z"/>
	<path class="st1" d="M288.67,60l-4.49-0.69l5.51-35.87l4.49,0.69L288.67,60z"/>
	<path class="st1" d="M322.37,68.22l-4.25-1.19l-9.58-35.52l-0.59,2.32c-0.19,0.89-0.37,1.63-0.54,2.22l-7.24,25.97l-3.53-0.99
		l9.75-34.96l5.48,1.53l8.96,33.2l0.63-2.45c0.23-0.97,0.45-1.81,0.66-2.55l6.56-23.52l3.46,0.96L322.37,68.22z"/>
	<path class="st1" d="M329.88,60.66l4.11,0.88c-0.58,5.18,1.62,8.93,6.6,11.23c2.61,1.21,4.82,1.56,6.66,1.07
		c1.83-0.49,3.18-1.67,4.04-3.53c0.65-1.4,0.67-2.77,0.06-4.09c-0.61-1.32-1.5-2.45-2.67-3.38l-5.84-4.68
		c-1.5-1.22-2.66-2.4-3.45-3.52c-0.8-1.12-1.28-2.5-1.44-4.14c-0.16-1.64,0.15-3.29,0.91-4.95c1.28-2.75,3.33-4.47,6.16-5.14
		c2.83-0.67,5.87-0.26,9.12,1.25c5.98,2.77,8.66,7.3,8.03,13.6l-4.25-0.62c0.46-2.13,0.12-4.06-1.04-5.8
		c-1.15-1.73-2.63-3.02-4.45-3.86c-1.8-0.83-3.63-1.1-5.48-0.8c-1.85,0.3-3.18,1.32-3.99,3.07c-1.13,2.44-0.11,4.91,3.06,7.42
		l5.49,4.3c5,3.96,6.41,8.3,4.23,13.01c-1.32,2.85-3.47,4.73-6.46,5.64c-2.99,0.91-6.41,0.48-10.25-1.31
		C332.22,73.14,329.16,67.93,329.88,60.66z"/>
	<path class="st1" d="M364.5,89.55l-3.84-2.44l17.35-27.25l-8.77-5.58l2.14-3.36l21.4,13.63l-2.14,3.36l-8.79-5.6L364.5,89.55z"/>
	<path class="st1" d="M380,100.77l-3.58-2.8l22.34-28.6l3.58,2.8L380,100.77z"/>
	<path class="st1" d="M394.34,113.41l-3.3-3.13l22.23-23.44l-7.54-7.15l2.74-2.89l18.4,17.46l-2.74,2.89l-7.56-7.17L394.34,113.41z"
		/>
	<path class="st1" d="M445.73,117.12l2.34,2.96l-18.59,14.72c-3.73,2.95-7.13,4.15-10.19,3.61c-3.07-0.54-5.77-2.3-8.12-5.26
		c-2.61-3.29-3.7-6.39-3.29-9.3c0.42-2.91,2.44-5.8,6.07-8.67l18.59-14.72l2.82,3.56l-18.59,14.72c-2.21,1.75-3.57,3.24-4.06,4.47
		c-0.5,1.23-0.55,2.54-0.15,3.92c0.39,1.38,1.04,2.64,1.94,3.78c1.74,2.2,3.64,3.41,5.69,3.63c2.06,0.23,4.37-0.68,6.95-2.72
		L445.73,117.12z"/>
	<path class="st1" d="M429,158.25l-2.29-3.93l27.93-16.24l-5.23-8.99l3.45-2.01l12.75,21.93l-3.45,2.01l-5.24-9.01L429,158.25z"/>
	<path class="st1" d="M448.43,190.95l-3.69,1.52l-8.95-21.71l33.56-13.83l8.75,21.24l-3.69,1.52l-7.02-17.04l-10.67,4.4l5.57,13.52
		l-3.42,1.41l-5.57-13.52l-12.09,4.98L448.43,190.95z"/>
</g>
<text transform="matrix(1 0 0 1 10.9372 629.0743)" style="font-family:'FranklinGothic-Book'; font-size:21.3081px;">#00943a</text>
<text transform="matrix(1 0 0 1 10.937 564.6533)" style="font-family:'FranklinGothic-Book'; font-size:21.3081px;">R:0 - G:148 - B:58</text>
<text transform="matrix(1 0 0 1 10.937 595.727)" style="font-family:'FranklinGothic-Book'; font-size:21.3081px;">C:85 - M:13 - Y:100 - K:0</text>
</svg>
